ffprobe version n2.6.1 Copyright (c) 2007-2015 the FFmpeg developers
  built with gcc 4.8 (Ubuntu 4.8.2-19ubuntu1)
  configuration: --prefix=/opt/ffmpeg --extra-cflags=-I/opt/ffmpeg/include --extra-ldflags=-L/opt/ffmpeg/lib --extra-libs=-ldl --enable-gpl --enable-libass --enable-libfdk-aac --enable-libfreetype --enable-libmp3lame --enable-libtheora --enable-libvorbis --enable-libvpx --enable-libx264 --enable-libx265 --enable-nonfree
  libavutil      54. 20.100 / 54. 20.100
  libavcodec     56. 26.100 / 56. 26.100
  libavformat    56. 25.101 / 56. 25.101
  libavdevice    56.  4.100 / 56.  4.100
  libavfilter     5. 11.102 /  5. 11.102
  libswscale      3.  1.101 /  3.  1.101
  libswresample   1.  1.100 /  1.  1.100
  libpostproc    53.  3.100 / 53.  3.100
Input #0, matroska,webm, from '/media/flaviopontes/Gigante/Filmes/Anime/Gundam unicorn/Mobile_Suit_Gundam_Unicorn_Ep1_Day_of_the_Unicorn_[720p,BluRay,x264,DTS]_-_THORA v2.mkv':
  Metadata:
    title           : Gundam Unicorn Ep1
    encoder         : libebml v1.2.1 + libmatroska v1.1.1
    creation_time   : 2011-11-26 17:03:46
  Duration: 00:57:57.50, start: 0.000000, bitrate: 5359 kb/s
    Stream #0:0(jpn): Video: h264 (High 10), yuv420p10le, 1280x720 [SAR 1:1 DAR 16:9], 23.98 fps, 23.98 tbr, 1k tbn, 47.95 tbc (default)
    Stream #0:1(jpn): Audio: dts (DTS), 48000 Hz, 5.1(side), fltp, 1536 kb/s (default)
    Stream #0:2(eng): Audio: ac3, 48000 Hz, 5.1(side), fltp, 448 kb/s
    Stream #0:3(eng): Subtitle: ass (default)
    Stream #0:4(fre): Subtitle: ass
    Stream #0:5(spa): Subtitle: ass
    Stream #0:6: Attachment: ttf
    Metadata:
      filename        : fansubBlock.ttf
      mimetype        : application/x-truetype-font
    Stream #0:7: Attachment: ttf
    Metadata:
      filename        : LiberationSans-Regular.ttf
      mimetype        : application/x-truetype-font
    Stream #0:8: Attachment: ttf
    Metadata:
      filename        : LIDSTFCE.TTF
      mimetype        : application/x-truetype-font
    Stream #0:9: Attachment: ttf
    Metadata:
      filename        : modiminch.ttf
      mimetype        : application/x-truetype-font
Unsupported codec with id 98304 for input stream 6
Unsupported codec with id 98304 for input stream 7
Unsupported codec with id 98304 for input stream 8
Unsupported codec with id 98304 for input stream 9
